<svg data-v-0dd9719b="" version="1.0" xmlns="http://www.w3.org/2000/svg" xmlns:xlink="http://www.w3.org/1999/xlink" width="100%" height="100%" viewBox="0 0 340.000000 250.000000" preserveAspectRatio="xMidYMid meet" color-interpolation-filters="sRGB" style="margin: auto;"> <rect data-v-0dd9719b="" x="0" y="0" width="100%" height="100%" fill="#fff" fill-opacity="1" class="background"></rect> <rect data-v-0dd9719b="" x="0" y="0" width="100%" height="100%" fill="url(#watermark)" fill-opacity="1" class="watermarklayer"></rect> <g data-v-0dd9719b="" fill="#e50012" class="icon-text-wrapper icon-svg-group iconsvg" transform="translate(57.1300048828125,98.56291961669922)"><g class="iconsvg-imagesvg" transform="translate(0,0)"><g><rect fill="#e50012" fill-opacity="0" stroke-width="2" x="0" y="0" width="53" height="52.87415950038907" class="image-rect"></rect> <svg x="0" y="0" width="53" height="52.87415950038907" filtersec="colorsb337806137" class="image-svg-svg primary" style="overflow: visible;"><svg version="1.1" id="图层_1" xmlns="http://www.w3.org/2000/svg" xmlns:xlink="http://www.w3.org/1999/xlink" x="0px" y="0px" viewBox="1.2899999618530273 1.5099999904632568 92.70999908447266 92.48999786376953" enable-background="new 0 0 95 95" xml:space="preserve">
<g>
	<polygon fill="#231815" points="93.67,12.86 50.74,87.23 1.31,1.61 1.29,1.61 1.29,94 93.67,94 	"></polygon>
	<path fill="#E50012" d="M29.77,1.51l32.11,55.62L94,1.51H29.77z M7.59,1.51l32.38,56.08h15.84L23.43,1.51H7.59z"></path>
</g>
</svg></svg> <!----></g></g> <g transform="translate(60,2.9980201721191406)"><g data-gra="path-name" fill-rule="" class="tp-name iconsvg-namesvg" transform="translate(0,0)"><g transform="scale(1)"><g><path d="M7.88-9.81L17.01-9.81 17.01-12.06 7.88-12.06 7.88-16.47 10.26-16.47 8.82-19.8 15.52-19.8 16.96-16.47 23.76-16.47 25.2-19.8 31.9-19.8 30.46-16.47 32.71-16.47 32.71-12.06 24.07-12.06 24.07-9.81 32.71-9.81 32.71-5.4 24.07-5.4 24.07 0 17.01 0 17.01-5.4 7.88-5.4 7.88-9.81ZM23.58-24.88L36-24.88Q36.95-24.88 37.75-24.52 38.56-24.16 39.17-23.56 39.78-22.95 40.14-22.12 40.5-21.29 40.5-20.34L40.5-20.34 40.5-4.46Q40.5-2.56 39.2-1.28 37.89 0 36 0L36 0 30.64 0 32.49-4 33.52-4Q34.02-4 34.4-4.39 34.78-4.77 34.78-5.31L34.78-5.31 34.78-19.48Q34.78-20.02 34.4-20.41 34.02-20.79 33.52-20.79L33.52-20.79 6.75-20.79 6.75 0 1.03 0 1.03-24.88 17.01-24.88 17.01-26.86 0.85-26.86 0.85-31.36 17.01-31.36 17.01-32.45 23.58-32.45 23.58-31.36 40.18-31.36 40.18-26.86 23.58-26.86 23.58-24.88ZM56.47-4.5L59.71-4.5Q60.08-4.5 60.37-4.77 60.66-5.04 60.66-5.44L60.66-5.44 60.66-16.34 43.24-16.34 43.24-20.7 60.66-20.7 66.24-20.7 80.82-20.7 80.82-16.34 66.24-16.34 66.24-3.46Q66.24-2.02 65.27-1.06 64.3-0.09 62.86-0.09L62.86-0.09 54.54-0.09 56.47-4.5ZM48.06-25.33L48.06-22.68 42.48-22.68 42.48-29.74 48.06-29.74 58.09-29.74 56.88-32.35 63.05-32.35 64.3-29.74 77.49-29.74Q79.25-29.74 80.48-28.51 81.72-27.27 81.72-25.52L81.72-25.52 81.72-22.68 76.14-22.68 76.14-23.94Q76.14-24.52 75.73-24.93 75.33-25.33 74.75-25.33L74.75-25.33 48.06-25.33ZM113.49-32.4L113.49-29.7 123.25-29.7 123.25-9.27Q123.25-8.23 122.87-7.33 122.49-6.43 121.81-5.76 121.14-5.08 120.24-4.7 119.34-4.32 118.35-4.32L118.35-4.32 113.49-4.32 113.49 0 107.23 0 107.23-4.32 97.42-4.32 97.42-29.7 107.23-29.7 107.23-32.4 113.49-32.4ZM107.23-25.38L103.09-25.38 103.09-19.39 107.23-19.39 107.23-25.38ZM103.09-8.78L107.23-8.78 107.23-14.94 103.09-14.94 103.09-8.78ZM113.49-8.78L116.19-8.78Q116.78-8.78 117.18-9.18 117.58-9.58 117.58-10.17L117.58-10.17 117.58-14.94 113.49-14.94 113.49-8.78ZM117.58-25.38L113.49-25.38 113.49-19.39 117.58-19.39 117.58-25.38ZM96.16-22L93.06-22 93.06-4.37 96.16-4.37 96.16 0 83.74 0 83.74-4.37 86.85-4.37 86.85-22 83.74-22 83.74-26.46 86.85-26.46 86.85-32.4 93.06-32.4 93.06-26.46 96.16-26.46 96.16-22ZM144.54-3.06L144.99-3.06Q145.44-3.06 145.71-3.33L145.71-3.33Q146.02-3.65 146.02-4.18L146.02-4.18 146.02-10.35 143.77-10.35 143.77-3.33 142.51 0.14 138.33 0.14 139.59-3.33 139.59-32.53 148.36-32.53Q149.13-32.53 149.67-31.95 150.21-31.36 150.21-30.55L150.21-30.55 150.21-2.43Q150.21-1.3 149.49-0.58L149.49-0.58Q148.77 0.14 147.69 0.14L147.69 0.14 143.41 0.14 144.54-3.06ZM132.97-3.06L133.38-3.06Q133.88-3.06 134.14-3.33L134.14-3.33Q134.46-3.65 134.46-4.18L134.46-4.18 134.46-10.35 132.21-10.35 132.21-3.33 130.95 0.14 126.76 0.14 128.02-3.33 128.02-32.53 136.71-32.53Q137.56-32.53 138.1-31.95 138.64-31.36 138.64-30.55L138.64-30.55 138.64-2.43Q138.64-1.35 137.88-0.58L137.88-0.58Q137.16 0.14 136.13 0.14L136.13 0.14 131.85 0.14 132.97-3.06ZM159.21-32.49L158.85-30.64 166.59-30.64 166.59-19.62Q166.59-18.13 165.55-17.1L165.55-17.1Q164.52-16.02 163.03-16.02L163.03-16.02 158.85-16.02 160.2-19.62 161.28-19.62Q161.73-19.62 162-19.93L162-19.93Q162.27-20.2 162.27-20.65L162.27-20.65 162.27-27.09 155.7-27.09 155.7-14.98 166.59-14.98 166.59-3.38Q166.59-1.89 165.55-0.85L165.55-0.85Q164.52 0.14 163.03 0.14L163.03 0.14 158.22 0.14 159.48-3.38 161.14-3.38Q161.55-3.38 161.86-3.69L161.86-3.69Q162.13-3.96 162.13-4.41L162.13-4.41 162.13-11.34 151.11-11.34 151.11-30.64 153.67-30.64 154.13-32.49 159.21-32.49ZM161.01-8.78L161.01-5.35 151.29-5.35 151.29-8.78 161.01-8.78ZM160.25-25.38L161.46-20.7 157.59-20.7 156.33-25.38 160.25-25.38ZM132.21-13.68L134.46-13.68 134.46-20.2 132.21-20.2 132.21-13.68ZM143.77-13.68L146.02-13.68 146.02-20.2 143.77-20.2 143.77-13.68ZM145.53-29.52L143.77-29.52 143.77-23.58 146.02-23.58 146.02-29.02Q146.02-29.52 145.53-29.52L145.53-29.52ZM133.92-29.52L132.21-29.52 132.21-23.58 134.46-23.58 134.46-29.02Q134.46-29.52 133.92-29.52L133.92-29.52Z" transform="translate(-0.8500000238418579, 32.529998779296875)"></path></g> <!----> <!----> <!----> <!----> <!----> <!----> <!----></g></g> <g data-gra="path-slogan" fill-rule="" class="tp-slogan iconsvg-slogansvg" fill="#231815" transform="translate(5,37.66999816894531)"><rect x="0" height="1" y="3.6050000190734863" width="14.804996490478516"></rect> <rect height="1" y="3.6050000190734863" width="14.804996490478516" x="140.93499374389648"></rect> <g transform="translate(17.804996490478516,0)"><g transform="scale(1)"><path d="M2.11-7.86L6.06-1.50L6.06-7.86L7.09-7.86L7.09 0L5.89 0L1.89-6.36L1.85-6.36L1.85 0L0.82 0L0.82-7.86L2.11-7.86ZM14.92 0L14.15-2.28L10.97-2.28L10.15 0L9.08 0L12.04-7.86L13.25-7.86L16.08 0L14.92 0ZM12.56-6.70L11.31-3.22L13.76-3.22L12.60-6.70L12.56-6.70ZM19.32-7.86L23.27-1.50L23.27-7.86L24.30-7.86L24.30 0L23.10 0L19.10-6.36L19.06-6.36L19.06 0L18.03 0L18.03-7.86L19.32-7.86ZM28.22-7.86L32.18-1.50L32.18-7.86L33.21-7.86L33.21 0L32.00 0L28.01-6.36L27.96-6.36L27.96 0L26.93 0L26.93-7.86L28.22-7.86ZM36.01-7.86L37.09-7.86L37.09 0L36.01 0L36.01-7.86ZM41.18-7.86L45.13-1.50L45.13-7.86L46.16-7.86L46.16 0L44.96 0L40.96-6.36L40.92-6.36L40.92 0L39.89 0L39.89-7.86L41.18-7.86ZM54.68-3.31L52.28-3.31L52.28-4.21L55.71-4.21L55.71 0L55.03 0L54.77-0.99Q53.87 0.09 52.19 0.13L52.19 0.13Q50.60 0.13 49.74-0.69L49.74-0.69Q48.45-1.89 48.50-4.00L48.50-4.00Q48.80-7.91 52.23-8.08L52.23-8.08Q55.16-7.91 55.59-5.50L55.59-5.50L54.55-5.50Q54.13-7.13 52.19-7.18L52.19-7.18Q49.74-7.00 49.61-3.95L49.61-3.95Q49.61-0.69 52.23-0.69L52.23-0.69Q53.18-0.69 53.87-1.20L53.87-1.20Q54.73-1.89 54.68-3.31L54.68-3.31ZM64.72-3.95L63.47-2.79L63.47 0L62.40 0L62.40-7.86L63.47-7.86L63.47-4.04L67.30-7.86L68.80-7.86L65.49-4.68L68.89 0L67.47 0L64.72-3.95ZM75.90-2.92L75.90-7.86L76.98-7.86L76.98-2.79Q76.85 0.04 73.75 0.13L73.75 0.13Q70.88 0.04 70.75-2.62L70.75-2.62L70.75-7.86L71.82-7.86L71.82-2.92Q71.86-0.77 73.80-0.73L73.80-0.73Q75.90-0.77 75.90-2.92L75.90-2.92ZM80.90-7.86L84.85-1.50L84.85-7.86L85.88-7.86L85.88 0L84.68 0L80.68-6.36L80.64-6.36L80.64 0L79.61 0L79.61-7.86L80.90-7.86ZM91.87-7.00L89.72-7.00L89.72-4.25L91.82-4.25Q93.46-4.25 93.46-5.67L93.46-5.67Q93.46-6.96 91.87-7.00L91.87-7.00ZM92.21-3.31L89.72-3.31L89.72 0L88.64 0L88.64-7.86L92.21-7.86Q94.45-7.78 94.53-5.67L94.53-5.67Q94.40-3.39 92.21-3.31L92.21-3.31ZM98.02-0.95L102.75-0.95L102.75 0L96.95 0L96.95-7.86L102.66-7.86L102.66-6.96L98.02-6.96L98.02-4.51L102.32-4.51L102.32-3.57L98.02-3.57L98.02-0.95ZM106.41-7.86L110.37-1.50L110.37-7.86L111.40-7.86L111.40 0L110.20 0L106.20-6.36L106.16-6.36L106.16 0L105.13 0L105.13-7.86L106.41-7.86ZM119.92-3.31L117.51-3.31L117.51-4.21L120.95-4.21L120.95 0L120.26 0L120.00-0.99Q119.10 0.09 117.43 0.13L117.43 0.13Q115.84 0.13 114.98-0.69L114.98-0.69Q113.69-1.89 113.73-4.00L113.73-4.00Q114.03-7.91 117.47-8.08L117.47-8.08Q120.39-7.91 120.82-5.50L120.82-5.50L119.79-5.50Q119.36-7.13 117.43-7.18L117.43-7.18Q114.98-7.00 114.85-3.95L114.85-3.95Q114.85-0.69 117.47-0.69L117.47-0.69Q118.41-0.69 119.10-1.20L119.10-1.20Q119.96-1.89 119.92-3.31L119.92-3.31Z" transform="translate(-0.81640625, 8.078125)"></path></g></g></g></g></g><defs v-gra="od"></defs></svg>